<svg xmlns="http://www.w3.org/2000/svg" data-name="Layer 1" viewBox="0 0 512 512" id="chess-logo"><path fill="#c9ad90" d="M363.44 328.2v99.01h130.89l-32.73-48.99 32.73-50.02H363.44zM17.67 328.2h130.89v99.01H17.67l32.72-50.02-32.72-48.99z"></path><path fill="#b38a62" d="M209 434.93c-1.45-.34-2.9-.7-4.34-1.07a204.13 204.13 0 0 1-56.11-24c-3.26-2-6.46-4.13-9.6-6.31a208.12 208.12 0 0 1-34.46-30.34l-3.94-5.47-19.86-27.62-3.77-5.24a207.58 207.58 0 0 1-26.45-101.8c0-114.5 92-207.31 205.55-207.31s205.55 92.81 205.55 207.31A207.62 207.62 0 0 1 373 403.52c-3.14 2.18-6.33 4.3-9.59 6.31l-2.16 1.32A203.14 203.14 0 0 1 256 440.37q-7.6 0-15-.55Z"></path><path fill="#eee7df" d="M222.44 365.53c-1-.24-2-.48-3-.74a141.57 141.57 0 0 1-39-16.69q-3.39-2.1-6.66-4.38a145 145 0 0 1-23.94-21.07l-2.73-3.8-13.8-19.16-2.63-3.69a144.22 144.22 0 0 1-18.37-70.7c0-79.52 63.92-144 142.76-144s142.75 64.46 142.75 144a144.24 144.24 0 0 1-61.47 118.39q-3.27 2.28-6.67 4.38c-.49.31-1 .61-1.49.91a141 141 0 0 1-73.12 20.3c-3.52 0-7-.12-10.45-.38Z"></path><path fill="#bd9b79" d="m241.58 233.39-5.49 19.47a84.89 84.89 0 0 1-25.45 41L185.74 316v-.1l-.7 25.18h131.62l8.82-20.4a142.2 142.2 0 0 0-15.57-165.89A82.14 82.14 0 0 0 291 139l-40.85-24.93v23.81a5.66 5.66 0 0 1-1.89 4.22L176 206.62a8.52 8.52 0 0 0-1.48 10.95l4.61 7.19a8.37 8.37 0 0 0 10.57 3.1l18.66-8.67a56.94 56.94 0 0 0 75.61 0Z"></path><path fill="#b38a62" d="m193.34 219.19-13.63 6.33a8.34 8.34 0 0 0 10 2.34l9.23-4.29a58.84 58.84 0 0 1-5.6-4.35Z"></path><ellipse cx="256.29" cy="179.17" fill="#725537" rx="14.16" ry="14.28"></ellipse><path fill="#654b30" d="M256.29 164.88a13.92 13.92 0 0 0-7.52 2.2 14.32 14.32 0 0 1 0 24.17 13.92 13.92 0 0 0 7.52 2.2 14.29 14.29 0 0 0 0-28.57Z"></path><path fill="#070606" d="M256.76 180.61Zm-1 0Zm0-2.89Z"></path><path fill="#725537" d="M186.75 341.07H315a15 15 0 0 1 14 9.82l5.84 15.63h-168l5.85-15.63a15 15 0 0 1 14.06-9.82Z"></path><path fill="#decdbc" d="M90.55 366.53h330.89v121.36H90.55z"></path><path fill="#2a2a2c" d="M150.72 404.45a7.59 7.59 0 0 0 0-15.17h-30.09a7.56 7.56 0 0 0-7.52 7.59v60.68a7.55 7.55 0 0 0 7.52 7.58h30.09a7.59 7.59 0 0 0 0-15.17h-22.57v-45.51zm180.48 0a7.59 7.59 0 0 0 0-15.17h-30.08a7.56 7.56 0 0 0-7.52 7.59v30.34a7.55 7.55 0 0 0 7.52 7.58h22.56V450h-22.56a7.59 7.59 0 0 0 0 15.17h30.08a7.55 7.55 0 0 0 7.52-7.58v-30.38a7.56 7.56 0 0 0-7.52-7.59h-22.56v-15.17zm60.16 15.17H368.8v-15.17h22.56a7.59 7.59 0 0 0 0-15.17h-30.08a7.56 7.56 0 0 0-7.52 7.59v30.34a7.55 7.55 0 0 0 7.52 7.58h22.56V450h-22.56a7.59 7.59 0 0 0 0 15.17h30.08a7.54 7.54 0 0 0 7.52-7.58v-30.38a7.55 7.55 0 0 0-7.52-7.59zM209 389.28a7.56 7.56 0 0 0-7.52 7.59v22.75h-15v-22.75a7.52 7.52 0 1 0-15 0v60.68a7.52 7.52 0 1 0 15 0v-22.76h15v22.76a7.52 7.52 0 1 0 15 0v-60.68a7.55 7.55 0 0 0-7.48-7.59zm62 45.51a7.59 7.59 0 0 0 0-15.17h-22.52v-15.17H271a7.59 7.59 0 0 0 0-15.17h-30a7.55 7.55 0 0 0-7.52 7.59v60.68a7.54 7.54 0 0 0 7.52 7.58h30a7.59 7.59 0 0 0 0-15.13h-22.52v-15.21z"></path><path d="M107.61 139a7.5 7.5 0 0 0-10.26 2.68l-.2.35a7.5 7.5 0 1 0 10.46-3Zm-25.1 84.7h.45a7.54 7.54 0 1 0-7.47-8.27v.34a7.47 7.47 0 0 0 7.02 7.97Zm45.16 132.8a7.48 7.48 0 1 0-.18-.18s.14.18.18.22Zm-44.3-108.03a7.5 7.5 0 0 0 7-7.94v-.3a7.5 7.5 0 1 0-7.47 8.25Zm-1.63-7.42 1.17-.07-1.27.08Zm18.54 45.49a7.5 7.5 0 0 0-14.15 5c0 .09.1.27.14.36a7.5 7.5 0 0 0 14-5.36Zm10.46 50.36.06.08a7.42 7.42 0 0 0 6 3 7.55 7.55 0 1 0-6-3.09Zm-22.83-64.1a7.5 7.5 0 0 0 5.78-8.9.89.89 0 0 0 0-.14A7.5 7.5 0 0 0 79 267l7.35-1.51L79 267a7.51 7.51 0 0 0 8.89 5.78Zm12 32.25a7.53 7.53 0 0 0-3 10.16l6.63-3.51-6.61 3.53a7.5 7.5 0 0 0 13.23-7.06L110 308a7.46 7.46 0 0 0-10.13-2.95ZM90.81 175a7.43 7.43 0 0 0 2.64.49 7.58 7.58 0 0 0 7-4.84 7.5 7.5 0 0 0-14-5.41l-.06.16a7.46 7.46 0 0 0 4.42 9.6Zm-5.88 24.05a7.41 7.41 0 0 0 1.54.17 7.52 7.52 0 1 0-7.31-9.11v.1a7.46 7.46 0 0 0 5.77 8.88ZM241 465h30a7.5 7.5 0 0 0 0-15h-22.5v-15H271a7.5 7.5 0 0 0 0-15h-22.5v-15H271a7.5 7.5 0 0 0 0-15h-30a7.5 7.5 0 0 0-7.5 7.5v60a7.5 7.5 0 0 0 7.5 7.5Zm120-15a7.5 7.5 0 0 0 0 15h30a7.5 7.5 0 0 0 7.5-7.5v-30a7.5 7.5 0 0 0-7.5-7.5h-22.5v-15H391a7.5 7.5 0 0 0 0-15h-30a7.5 7.5 0 0 0-7.5 7.5v30a7.5 7.5 0 0 0 7.5 7.5h22.5v15Zm-181.86 15a7.5 7.5 0 0 0 7.5-7.5V435h15v22.5a7.5 7.5 0 0 0 15 0v-60a7.5 7.5 0 1 0-15 0V420h-15v-22.5a7.5 7.5 0 1 0-15 0v60a7.5 7.5 0 0 0 7.5 7.5ZM301 450a7.5 7.5 0 0 0 0 15h30a7.5 7.5 0 0 0 7.5-7.5v-30a7.5 7.5 0 0 0-7.5-7.5h-22.5v-15H331a7.5 7.5 0 0 0 0-15h-30a7.5 7.5 0 0 0-7.5 7.5v30a7.5 7.5 0 0 0 7.5 7.5h22.5v15ZM121.84 118.82a7.5 7.5 0 0 0-10.53 1.32l-.16.22a7.51 7.51 0 0 0 6 12 7.6 7.6 0 0 0 4.68-13.54Zm197.49 97.11a7.5 7.5 0 1 0-14.68 3.07 132.57 132.57 0 0 1-10.76 85.16 7.5 7.5 0 0 0 3.42 10 7.35 7.35 0 0 0 3.3.77 7.5 7.5 0 0 0 6.74-4.19 147.67 147.67 0 0 0 11.98-94.81Zm-63-50.51a15 15 0 1 0 15 15 15 15 0 0 0-15.04-15ZM121 465h30a7.5 7.5 0 1 0 0-15h-22.5v-45H151a7.5 7.5 0 1 0 0-15h-30a7.5 7.5 0 0 0-7.5 7.5v60a7.5 7.5 0 0 0 7.5 7.5ZM269 48.36h-.34a7.5 7.5 0 0 0-.92 15h.59a7.5 7.5 0 0 0 .67-15Zm131.69 71.73a7.5 7.5 0 0 0-12 9l.26.33a7.5 7.5 0 0 0 11.76-9.3Zm-272.5-19.31-.07.07a7.48 7.48 0 0 0 5.32 12.75 7.51 7.51 0 1 0-5.25-12.82ZM411.8 152a7.53 7.53 0 0 0 2.87-10.21l-6.58 3.6 6.56-3.62a7.5 7.5 0 1 0-13.13 7.23l.09.16a7.47 7.47 0 0 0 6.51 3.79 7.55 7.55 0 0 0 3.68-.95Zm-69.18-82-.18-.1a7.62 7.62 0 1 0 .18.1Zm21.64 13.9-.08-.06a7.45 7.45 0 0 0-10.45 1.59 7.55 7.55 0 0 0 1.61 10.52 7.5 7.5 0 1 0 8.92-12Zm57.22 198a7.51 7.51 0 0 0-9.66 4.39 2 2 0 0 1-.08.22 7.52 7.52 0 0 0 4.56 9.6 7.46 7.46 0 0 0 9.56-4.53l-7-2.65 7 2.63a7.51 7.51 0 0 0-4.38-9.69Zm-47.54 63.84-.18.19a7.51 7.51 0 0 0 5.4 12.73 7.43 7.43 0 0 0 5.38-2.3l-5.29-5.36 5.3 5.3a7.5 7.5 0 0 0-10.61-10.61ZM470.06 379 500 333.69a7.5 7.5 0 0 0-6.26-11.63H446.3a212.22 212.22 0 0 0 21.55-93.16C467.85 112.08 372.81 17 256 17S44.14 112.08 44.14 228.9a212.22 212.22 0 0 0 21.55 93.16H18.31a7.5 7.5 0 0 0-6.22 11.69L41.94 378l-29.89 45.33A7.5 7.5 0 0 0 18.31 435H83.5v52.5A7.5 7.5 0 0 0 91 495h330a7.5 7.5 0 0 0 7.5-7.5V435h65.19a7.5 7.5 0 0 0 6.22-11.69ZM83.5 367.46V420H32.25l25-37.83a7.5 7.5 0 0 0 0-8.32l-24.84-36.79h41.4a215.22 215.22 0 0 0 15.85 23 7.49 7.49 0 0 0-6.16 7.4ZM413.5 480h-315V375h315Zm-94.65-166.5a6.65 6.65 0 0 0-.43.84L311.59 330H192.94l.39-13.82 22.39-19.7a91.06 91.06 0 0 0 27.64-44.14l3.89-13.69a64.5 64.5 0 0 0 41.63-16 7.5 7.5 0 1 0-9.88-11.31 49.8 49.8 0 0 1-65.23.25 7.5 7.5 0 0 0-8.38-1.45l-18.62 8.57a.88.88 0 0 1-1.1-.32l-4.61-7.12a.86.86 0 0 1 .16-1.13l72-63.8a13.09 13.09 0 0 0 4.41-9.79v-10.24L287 144.07a74.26 74.26 0 0 1 17.15 14.17 131.63 131.63 0 0 1 14.7 155.22Zm5.56 46.5h-147.1l3.83-12.11.06-.19.85-2.7h137.62Zm7.59-39.28a147.15 147.15 0 0 0-16.6-172.43 89 89 0 0 0-20.61-17L254 106.59a7.49 7.49 0 0 0-11.35 6.41v22.68l-71.39 63.23a15.78 15.78 0 0 0-2.8 20.51l4.6 7.12a16 16 0 0 0 20 5.79l14.36-6.61a64.33 64.33 0 0 0 24.69 11.35l-3.17 11.18a76.12 76.12 0 0 1-23.12 36.93l-24 21.1a7.5 7.5 0 0 0-3.39 6.07l-.5 17.61h-1.38a7.47 7.47 0 0 0-6.19 3.29A135.25 135.25 0 0 1 121 228.9c0-74.44 60.56-135 135-135s135 60.56 135 135a134 134 0 0 1-57.37 110.46l-1.31-4.16a7.53 7.53 0 0 0-4.57-4.77ZM402.86 360H361a9.37 9.37 0 0 0-1.06 0h-19.79l-1.8-5.69A149.81 149.81 0 0 0 406 228.9c0-82.71-67.29-150-150-150s-150 67.29-150 150a150.29 150.29 0 0 0 59.26 119.43L161.58 360h-9.45a7.34 7.34 0 0 0-1.24 0h-41.75a195.91 195.91 0 0 1-50-131.06C59.14 120.35 147.45 32 256 32s196.85 88.35 196.85 196.9a196.15 196.15 0 0 1-50 131.06Zm25.64 60v-52.5a7.49 7.49 0 0 0-6.17-7.37 214.22 214.22 0 0 0 15.85-23h41.57l-25 37.83a7.5 7.5 0 0 0 0 8.32L479.59 420ZM319.06 59.19l-2.66 7 2.64-7a7.5 7.5 0 1 0-5.27 14.05l.22.08a7.63 7.63 0 0 0 2.52.43 7.5 7.5 0 0 0 2.55-14.55Zm93.13 245.61a7.57 7.57 0 1 0 3 10.33s.08-.15.09-.18a7.51 7.51 0 0 0-3.09-10.15Zm-12.4 21.48a7.52 7.52 0 0 0-9 12.09 7.41 7.41 0 0 0 4.46 1.47 7.5 7.5 0 0 0 6-3l.06-.08a7.46 7.46 0 0 0-1.52-10.48Zm-16.06-225.62a7.46 7.46 0 0 0-10.57 0 7.53 7.53 0 0 0 5.34 12.84 7.5 7.5 0 0 0 5.3-12.8ZM217.54 52h-.09a7.49 7.49 0 0 0 1.64 14.81 7.75 7.75 0 0 0 1.57-.16A7.5 7.5 0 1 0 217.54 52Zm-24.66 7.22-.22.08a7.5 7.5 0 0 0 2.61 14.53 7.34 7.34 0 0 0 2.62-.48 7.5 7.5 0 1 0-5-14.13ZM243 48.36a7.5 7.5 0 0 0 .46 15h.79a7.5 7.5 0 0 0-1.25-15ZM294.31 52h-.1a7.46 7.46 0 0 0-8.84 5.79 7.52 7.52 0 1 0 8.94-5.79ZM147.67 83.88l-.08.06a7.49 7.49 0 0 0 4.51 13.48 7.5 7.5 0 1 0-4.43-13.54Zm21.72-13.95-.18.1a7.48 7.48 0 1 0 .18-.1Zm254.5 114.2a7.5 7.5 0 0 0-5.78 8.89c0 .07.06.24.07.31a7.52 7.52 0 0 0 7.29 5.74 7.21 7.21 0 0 0 1.77-.22 7.55 7.55 0 0 0-3.35-14.72Zm-12.45-13.63a7.5 7.5 0 1 0 14-5.27l-.06-.17a7.46 7.46 0 0 0-9.65-4.25 7.54 7.54 0 0 0-4.29 9.69Zm18.11 62.67a7.55 7.55 0 0 0-1.13 15.05h.69a7.5 7.5 0 0 0 7.46-6.82v-.34a7.5 7.5 0 0 0-7.02-7.89Zm-2.29 24.68a7.53 7.53 0 0 0-3.13 14.73 7.68 7.68 0 0 0 1.57.16 7.51 7.51 0 0 0 7.3-5.94v-.1a7.47 7.47 0 0 0-5.74-8.85Zm1.32-49.41a7.5 7.5 0 0 0-7.05 7.92v.34a7.5 7.5 0 0 0 7.46 6.82h.69a7.55 7.55 0 0 0-1.13-15.05Z"></path></svg>